<svg xmlns="http://www.w3.org/2000/svg" xmlns:xlink="http://www.w3.org/1999/xlink" width="32" height="32" preserveAspectRatio="xMidYMid meet" viewBox="0 0 32 32"><style>.a{fill:#000}@media (prefers-color-scheme:dark){.a{fill:#eee}}</style><circle cx="9.5" cy="9.5" r="2.5" class="a" style="opacity:.5"/><circle cx="9.5" cy="22.5" r="2.5" class="a" style="opacity:.8"/><circle cx="22.5" cy="22.5" r="2.5" class="a" style="opacity:.5"/><path d="M28 2H4a2.002 2.002 0 0 0-2 2v24a2.002 2.002 0 0 0 2 2h24a2.002 2.002 0 0 0 2-2V4a2.002 2.002 0 0 0-2-2zm0 13H17V4h11zM15 4v11H4V4zM4 17h11v11H4zm13 11V17h11v11z" class="a"/></svg>